<svg xmlns="http://www.w3.org/2000/svg" viewBox="0 0 1254 1254" width="1254" height="1254">
<defs>
 <linearGradient id="logoGradient" x1="170" y1="900" x2="1090" y2="350" gradientUnits="userSpaceOnUse">
  <stop offset="0%" stop-color="#ff1493"/><stop offset="30%" stop-color="#c51cff"/><stop offset="58%" stop-color="#3048ff"/><stop offset="82%" stop-color="#168cff"/><stop offset="100%" stop-color="#20d9e8"/>
 </linearGradient>
</defs>
<g fill="url(#logoGradient)" fill-rule="evenodd">
 <path d="M 470,684 454,698 452,703 453,711 502,760 502,763 461,802 453,812 453,819 457,826 467,836 478,837 552,769 554,760 552,755 489,693 477,684 Z"/>
 <path d="M 334,683 325,685 258,747 249,759 251,770 321,836 334,834 345,822 347,813 345,808 299,761 352,712 353,700 351,696 339,685 Z"/>
 <path d="M 442,644 417,643 411,645 407,650 348,862 350,870 355,874 381,874 389,865 448,654 446,647 Z"/>
 <path d="M 1169,587 1157,573 1120,538 1088,516 1057,500 1015,485 983,478 946,474 918,474 883,478 846,486 807,500 775,516 727,549 683,592 681,585 682,165 680,162 499,266 497,441 458,432 427,428 376,429 319,440 270,458 226,482 181,516 154,543 135,566 115,596 97,631 83,668 73,709 68,750 68,791 74,833 85,872 102,909 119,936 146,970 178,1001 226,1035 271,1057 307,1069 361,1079 417,1080 461,1074 488,1067 526,1053 576,1026 608,1002 653,956 656,956 695,998 725,1022 757,1042 804,1063 846,1075 895,1082 938,1082 986,1075 1039,1058 1090,1031 1135,996 1168,960 1072,858 1046,885 1021,905 990,922 965,931 934,936 894,935 872,931 854,925 829,913 809,899 791,882 775,860 764,837 755,800 755,766 758,748 765,727 783,694 808,665 836,643 868,627 894,619 921,615 952,615 977,619 1007,629 1029,641 1050,657 1076,683 Z M 429,563 458,569 481,577 497,585 513,595 529,608 546,625 557,639 576,673 589,714 593,751 590,788 583,815 564,852 547,874 528,893 511,906 478,924 456,932 435,937 408,940 388,940 358,936 329,928 294,911 266,890 242,864 225,836 212,798 209,778 209,742 211,729 220,695 227,678 240,655 258,631 288,603 312,587 352,570 386,563 Z"/>
</g>
</svg>